<svg xmlns="http://www.w3.org/2000/svg" xmlns:xlink="http://www.w3.org/1999/xlink" id="Layer_1" x="0px" y="0px" viewBox="0 0 207.86 66.86" style="enable-background:new 0 0 207.86 66.86;" xml:space="preserve"><style type="text/css">	.st0{fill:#1B3570;}	.st1{fill:#1B3570;}</style><g>	<g>		<g>			<g>				<g>					<path class="st0" d="M62.77,30.79V7.68H35.69v23.11v5.34v0.03v1.21v8.03c-2.23-3.85-5.43-7.05-9.28-9.28h3.94v-5.34h-17.7v7.25      h0.97c11.12,0,20.16,9.04,20.16,20.16v0.97h7.25v-23v-5.34v-0.03v-1.73v-7.83c0-4.52,3.68-8.2,8.2-8.2s8.2,3.68,8.2,8.2v7.83      v1.73v0.03v5.34v23h7.25V58.2c0-11.12,9.04-20.16,20.16-20.16h0.97v-7.25H62.77z M62.77,45.42v-9.25v-0.03h9.28      C68.2,38.37,65,41.57,62.77,45.42z"></path>					<path class="st0" d="M44.32,36.17L44.32,36.17c0.89,0,1.62-0.72,1.62-1.62v-2.11c0-0.89-0.72-1.62-1.62-1.62h0      c-0.89,0-1.62,0.72-1.62,1.62v2.11C42.7,35.45,43.43,36.17,44.32,36.17z"></path>					<path class="st0" d="M54.13,36.17L54.13,36.17c0.89,0,1.62-0.72,1.62-1.62v-2.11c0-0.89-0.72-1.62-1.62-1.62h0      c-0.89,0-1.62,0.72-1.62,1.62v2.11C52.52,35.45,53.24,36.17,54.13,36.17z"></path>					<path class="st0" d="M49.23,36.17L49.23,36.17c0.89,0,1.62-0.72,1.62-1.62v-2.11c0-0.89-0.72-1.62-1.62-1.62h0      c-0.89,0-1.62,0.72-1.62,1.62v2.11C47.61,35.45,48.33,36.17,49.23,36.17z"></path>				</g>			</g>		</g>	</g>	<g>		<path class="st0" d="M103.75,30.47c-0.69,0-1.32-0.13-1.88-0.4c-0.57-0.27-1.02-0.66-1.35-1.19c-0.33-0.52-0.5-1.17-0.5-1.93   v-3.83h3.02v3.65c0,0.27,0.05,0.48,0.16,0.64c0.11,0.16,0.28,0.24,0.52,0.24c0.46,0,0.69-0.28,0.69-0.84V15.04h3.08v11.47   c0,0.81-0.16,1.51-0.48,2.11c-0.32,0.59-0.76,1.05-1.32,1.37C105.12,30.31,104.48,30.47,103.75,30.47z"></path>		<path class="st0" d="M108.65,30.33V15.04h6.11V18h-3v2.98h2.88v2.88h-2.88v3.5h3.21v2.98H108.65z"></path>		<path class="st0" d="M115.98,30.33V15.04h4.66l1.29,9.32l1.28-9.32h4.7v15.29h-2.8V19.32l-1.75,11.01h-2.74l-1.86-11.01v11.01   H115.98z"></path>		<path class="st0" d="M129.25,30.33V15.04h4.14c1.11,0,1.92,0.27,2.43,0.81c0.51,0.54,0.76,1.43,0.76,2.68v0.67   c0,0.72-0.13,1.3-0.39,1.75s-0.65,0.74-1.18,0.88c0.69,0.17,1.15,0.58,1.38,1.22c0.24,0.64,0.35,1.42,0.35,2.34   c0,0.99-0.09,1.86-0.28,2.6s-0.52,1.32-1.01,1.73s-1.18,0.62-2.08,0.62H129.25z M132.24,20.8h0.63c0.28,0,0.47-0.11,0.55-0.33   c0.08-0.22,0.12-0.48,0.12-0.79v-1.54c0-0.49-0.22-0.74-0.65-0.74h-0.64V20.8z M132.54,27.64c0.79,0,1.19-0.38,1.19-1.13V24.6   c0-0.43-0.06-0.78-0.2-1.03c-0.13-0.25-0.38-0.38-0.73-0.38h-0.57v4.43C132.36,27.63,132.46,27.64,132.54,27.64z"></path>		<path class="st0" d="M137.34,30.33l1.48-15.29h5.19l1.45,15.29h-2.89l-0.22-2.47h-1.84l-0.19,2.47H137.34z M140.72,25.42h1.39   l-0.67-7.77h-0.14L140.72,25.42z"></path>		<path class="st0" d="M147.48,30.33V17.98h-1.82v-2.94h6.69v2.94h-1.82v12.35H147.48z"></path>		<path class="st0" d="M152.56,30.33l1.48-15.29h5.19l1.45,15.29h-2.89l-0.22-2.47h-1.84l-0.19,2.47H152.56z M155.94,25.42h1.39   l-0.67-7.77h-0.14L155.94,25.42z"></path>		<path class="st0" d="M161.61,30.33V15.04h3.14l1.41,7.32v-7.32h2.95v15.29h-2.99l-1.53-7.64v7.64H161.61z"></path>		<path class="st0" d="M100.36,51.68V36.39h4.14c1.11,0,1.92,0.27,2.43,0.81c0.51,0.54,0.76,1.43,0.76,2.68v0.67   c0,0.72-0.13,1.3-0.39,1.75s-0.65,0.74-1.18,0.88c0.69,0.17,1.15,0.58,1.38,1.22c0.24,0.64,0.35,1.42,0.35,2.34   c0,0.99-0.09,1.86-0.28,2.6s-0.52,1.32-1.01,1.73s-1.18,0.62-2.08,0.62H100.36z M103.35,42.15h0.63c0.28,0,0.47-0.11,0.55-0.33   c0.08-0.22,0.12-0.48,0.12-0.79v-1.54c0-0.49-0.22-0.74-0.65-0.74h-0.64V42.15z M103.65,48.98c0.79,0,1.19-0.38,1.19-1.13v-1.91   c0-0.43-0.06-0.78-0.2-1.03c-0.13-0.25-0.38-0.38-0.73-0.38h-0.57v4.43C103.47,48.98,103.57,48.98,103.65,48.98z"></path>		<path class="st0" d="M108.73,51.68V36.39h2.95v15.29H108.73z"></path>		<path class="st0" d="M116.53,51.82c-1.4,0-2.4-0.35-3.02-1.04c-0.62-0.69-0.92-1.8-0.92-3.32v-1.49h3.02v1.91   c0,0.35,0.05,0.63,0.16,0.83c0.11,0.2,0.29,0.3,0.56,0.3c0.28,0,0.47-0.08,0.58-0.24c0.11-0.16,0.16-0.43,0.16-0.8   c0-0.47-0.05-0.86-0.14-1.18s-0.25-0.62-0.48-0.9s-0.55-0.62-0.95-1l-1.37-1.3c-1.03-0.97-1.54-2.07-1.54-3.32   c0-1.3,0.3-2.3,0.91-2.98s1.48-1.02,2.63-1.02c1.4,0,2.4,0.37,2.98,1.12c0.59,0.75,0.88,1.88,0.88,3.4h-3.11v-1.05   c0-0.21-0.06-0.37-0.18-0.49c-0.12-0.12-0.28-0.17-0.48-0.17c-0.24,0-0.42,0.07-0.53,0.2c-0.11,0.14-0.17,0.31-0.17,0.53   s0.06,0.45,0.17,0.69c0.12,0.25,0.34,0.54,0.69,0.86l1.76,1.69c0.35,0.34,0.68,0.69,0.97,1.06c0.3,0.37,0.53,0.81,0.71,1.3   c0.18,0.5,0.27,1.1,0.27,1.81c0,1.44-0.26,2.56-0.79,3.37C118.77,51.41,117.85,51.82,116.53,51.82z"></path>		<path class="st0" d="M121.11,51.68V36.39h3.14l1.41,7.32v-7.32h2.95v15.29h-2.99l-1.53-7.64v7.64H121.11z"></path>		<path class="st0" d="M129.83,51.68V36.39h2.95v15.29H129.83z"></path>		<path class="st0" d="M137.63,51.82c-1.4,0-2.4-0.35-3.02-1.04c-0.62-0.69-0.92-1.8-0.92-3.32v-1.49h3.02v1.91   c0,0.35,0.05,0.63,0.16,0.83c0.11,0.2,0.29,0.3,0.56,0.3c0.28,0,0.47-0.08,0.58-0.24c0.11-0.16,0.16-0.43,0.16-0.8   c0-0.47-0.05-0.86-0.14-1.18s-0.25-0.62-0.48-0.9s-0.55-0.62-0.95-1l-1.37-1.3c-1.03-0.97-1.54-2.07-1.54-3.32   c0-1.3,0.3-2.3,0.91-2.98s1.48-1.02,2.63-1.02c1.4,0,2.4,0.37,2.98,1.12c0.59,0.75,0.88,1.88,0.88,3.4h-3.11v-1.05   c0-0.21-0.06-0.37-0.18-0.49c-0.12-0.12-0.28-0.17-0.48-0.17c-0.24,0-0.42,0.07-0.53,0.2c-0.11,0.14-0.17,0.31-0.17,0.53   s0.06,0.45,0.17,0.69c0.12,0.25,0.34,0.54,0.69,0.86l1.76,1.69c0.35,0.34,0.68,0.69,0.97,1.06c0.3,0.37,0.53,0.81,0.71,1.3   c0.18,0.5,0.27,1.1,0.27,1.81c0,1.44-0.26,2.56-0.79,3.37C139.87,51.41,138.94,51.82,137.63,51.82z"></path>		<path class="st0" d="M146.38,51.68V36.39h4.14c1.11,0,1.92,0.27,2.43,0.81c0.51,0.54,0.76,1.43,0.76,2.68v0.67   c0,0.72-0.13,1.3-0.39,1.75s-0.65,0.74-1.18,0.88c0.69,0.17,1.15,0.58,1.38,1.22c0.24,0.64,0.35,1.42,0.35,2.34   c0,0.99-0.09,1.86-0.28,2.6s-0.52,1.32-1.01,1.73s-1.18,0.62-2.08,0.62H146.38z M149.36,42.15h0.63c0.28,0,0.47-0.11,0.55-0.33   c0.08-0.22,0.12-0.48,0.12-0.79v-1.54c0-0.49-0.22-0.74-0.65-0.74h-0.64V42.15z M149.67,48.98c0.79,0,1.19-0.38,1.19-1.13v-1.91   c0-0.43-0.06-0.78-0.2-1.03c-0.13-0.25-0.38-0.38-0.73-0.38h-0.57v4.43C149.49,48.98,149.59,48.98,149.67,48.98z"></path>		<path class="st0" d="M154.89,51.68V36.39h4.69c0.78,0,1.37,0.18,1.77,0.53c0.4,0.36,0.67,0.85,0.8,1.49   c0.14,0.64,0.2,1.39,0.2,2.25c0,0.83-0.11,1.5-0.32,2c-0.21,0.5-0.61,0.84-1.19,1.03c0.48,0.1,0.82,0.34,1.01,0.72   c0.19,0.38,0.29,0.87,0.29,1.47v5.78h-3.01v-5.98c0-0.45-0.09-0.72-0.27-0.83c-0.18-0.11-0.48-0.16-0.88-0.16v6.98H154.89z    M158,42.05h0.74c0.42,0,0.63-0.46,0.63-1.38c0-0.6-0.05-0.99-0.14-1.17s-0.27-0.28-0.52-0.28H158V42.05z"></path>		<path class="st0" d="M167.01,51.82c-1.22,0-2.16-0.37-2.8-1.11c-0.65-0.74-0.97-1.81-0.97-3.2v-7.26c0-1.31,0.32-2.3,0.96-2.98   c0.64-0.68,1.58-1.02,2.81-1.02s2.17,0.34,2.81,1.02c0.64,0.68,0.96,1.67,0.96,2.98v7.26c0,1.4-0.32,2.46-0.97,3.2   C169.17,51.45,168.24,51.82,167.01,51.82z M167.04,49c0.46,0,0.7-0.45,0.7-1.35v-7.46c0-0.75-0.23-1.13-0.68-1.13   c-0.51,0-0.76,0.39-0.76,1.16v7.45c0,0.48,0.06,0.82,0.17,1.02C166.58,48.9,166.77,49,167.04,49z"></path>		<path class="st0" d="M172.02,51.68V36.39h3.02v6.12l1.42-6.12h3.07l-1.71,7l2.07,8.29h-3.17l-1.67-7.4v7.4H172.02z"></path>		<path class="st0" d="M180.42,51.68V36.39h6.11v2.95h-3v2.98h2.88v2.88h-2.88v3.5h3.21v2.98H180.42z"></path>		<path class="st0" d="M187.74,51.68V36.39h4.69c0.78,0,1.37,0.18,1.77,0.53c0.4,0.36,0.67,0.85,0.8,1.49   c0.14,0.64,0.2,1.39,0.2,2.25c0,0.83-0.11,1.5-0.32,2c-0.21,0.5-0.61,0.84-1.19,1.03c0.48,0.1,0.82,0.34,1.01,0.72   c0.19,0.38,0.29,0.87,0.29,1.47v5.78h-3.01v-5.98c0-0.45-0.09-0.72-0.27-0.83c-0.18-0.11-0.48-0.16-0.88-0.16v6.98H187.74z    M190.85,42.05h0.74c0.42,0,0.63-0.46,0.63-1.38c0-0.6-0.05-0.99-0.14-1.17s-0.27-0.28-0.52-0.28h-0.71V42.05z"></path>	</g></g></svg>